<?xml version="1.0" standalone="no"?>
<!DOCTYPE svg PUBLIC "-//W3C//DTD SVG 20010904//EN"
 "http://www.w3.org/TR/2001/REC-SVG-20010904/DTD/svg10.dtd">
<svg version="1.0" xmlns="http://www.w3.org/2000/svg"
 width="512.000000pt" height="512.000000pt" viewBox="0 0 512.000000 512.000000"
 preserveAspectRatio="xMidYMid meet">
<metadata>
Created by potrace 1.11, written by Peter Selinger 2001-2013
</metadata>
<g transform="translate(0.000000,512.000000) scale(0.100000,-0.100000)"
fill="#000000" stroke="none">
<path d="M0 2560 l0 -2560 2560 0 2560 0 0 2560 0 2560 -2560 0 -2560 0 0
-2560z m4608 981 c2 -13 -6 -43 -19 -65 -21 -39 -336 -582 -479 -826 -137
-235 -291 -502 -435 -755 -81 -143 -159 -273 -174 -288 -55 -60 -9 -57 -888
-56 -444 0 -955 4 -1134 8 l-325 7 -60 29 c-32 17 -60 37 -62 45 -2 10 63 64
180 150 101 74 215 158 253 187 68 51 95 63 95 43 0 -21 85 -30 281 -30 279 0
272 -4 411 231 31 52 78 119 103 147 40 45 186 163 264 214 14 10 31 24 36 31
6 8 111 89 234 180 237 176 280 198 267 136 -3 -17 -94 -183 -202 -368 -108
-185 -208 -356 -222 -381 -13 -25 -40 -71 -58 -103 -19 -32 -34 -62 -34 -68 0
-14 523 -12 555 3 30 13 50 47 350 572 128 224 218 368 249 403 43 48 289 236
648 496 127 92 160 104 166 58z m-2243 -562 c12 -13 -10 -37 -88 -94 -45 -33
-425 -312 -845 -620 -877 -644 -900 -661 -908 -653 -3 3 83 109 191 234 108
126 215 258 239 294 24 36 130 229 236 430 106 201 201 374 212 385 18 19 36
20 361 26 393 6 594 6 602 -2z"/>
</g>
</svg>
