<?xml version="1.0" standalone="no"?>
<!DOCTYPE svg PUBLIC "-//W3C//DTD SVG 20010904//EN"
 "http://www.w3.org/TR/2001/REC-SVG-20010904/DTD/svg10.dtd">
<svg version="1.0" xmlns="http://www.w3.org/2000/svg"
 width="1000.000000pt" height="1000.000000pt" viewBox="0 0 1000.000000 1000.000000"
 preserveAspectRatio="xMidYMid meet">
<metadata>
Created by potrace 1.11, written by Peter Selinger 2001-2013
</metadata>
<g transform="translate(0.000000,1000.000000) scale(0.100000,-0.100000)"
fill="#000000" stroke="none">
<path d="M0 5000 l0 -5000 5000 0 5000 0 0 5000 0 5000 -5000 0 -5000 0 0
-5000z m9005 1905 c-1 -67 0 -65 -390 -730 -333 -569 -476 -814 -716 -1231
-136 -237 -281 -487 -321 -555 -41 -68 -213 -369 -384 -669 -327 -577 -355
-618 -455 -671 l-44 -24 -1676 -3 c-1490 -2 -1676 -1 -1676 13 0 8 7 16 16 17
9 1 -229 5 -529 8 -592 7 -595 7 -713 66 -64 32 -97 61 -97 86 0 10 23 36 52
58 78 59 248 185 458 338 102 75 244 179 316 232 177 132 168 128 209 91 19
-16 52 -34 72 -38 21 -4 232 -8 468 -8 355 0 436 3 465 15 46 19 123 71 116
78 -8 7 15 33 24 27 4 -3 7 3 6 13 0 10 5 16 15 14 9 -1 24 13 36 35 61 113
228 393 270 451 76 108 196 219 378 351 94 68 176 131 183 140 7 9 18 15 23
14 5 -2 9 5 9 15 0 11 11 24 25 30 14 6 25 19 25 29 0 15 2 15 14 -3 14 -19
14 -19 13 1 -1 11 -6 23 -12 27 -6 4 -2 8 8 8 10 0 22 11 27 25 5 14 14 24 19
23 5 -2 16 4 23 13 12 15 116 93 643 480 165 121 211 142 254 120 29 -16 28
-71 -3 -136 -13 -27 -93 -170 -180 -317 -383 -657 -479 -821 -642 -1105 -96
-166 -174 -304 -174 -307 0 -3 237 -6 526 -6 576 0 571 -1 614 60 21 29 203
343 698 1205 173 303 337 577 363 610 85 107 147 157 634 516 264 194 540 397
614 452 73 54 169 124 213 154 75 50 84 54 132 51 l51 -3 0 -60z m-4402 -1089
c43 -21 17 -47 -263 -252 -375 -275 -1531 -1124 -1635 -1201 -55 -40 -212
-156 -350 -257 -137 -100 -380 -279 -540 -396 -755 -555 -767 -564 -786 -558
-12 4 3 22 460 558 172 201 341 408 375 460 35 52 195 343 356 645 541 1019
500 945 542 973 25 16 61 28 101 32 86 11 1718 7 1740 -4z"/>
<path d="M6126 5747 c3 -10 9 -15 12 -12 3 3 0 11 -7 18 -10 9 -11 8 -5 -6z"/>
</g>
</svg>
